<?xml version="1.0" encoding="utf-8"?>
<!-- Generator: Adobe Illustrator 19.0.0, SVG Export Plug-In . SVG Version: 6.00 Build 0)  -->
<svg version="1.1" id="Layer_1" xmlns="http://www.w3.org/2000/svg" xmlns:xlink="http://www.w3.org/1999/xlink" x="0px" y="0px"
	 viewBox="0 0 2097.2 464.9" style="enable-background:new 0 0 2097.2 464.9;" xml:space="preserve">
<style type="text/css">
	.st0{fill:none;}
	.st1{fill:#439945;}
	.st2{fill:#429945;}
	.st3{fill:#FFFFFF;}
</style>
<g id="XMLID_2_">
	<rect id="XMLID_64_" x="478.3" y="33.5" class="st0" width="1735" height="414.6"/>
	<path id="XMLID_46_" class="st1" d="M662.6,140.9c15.4,9.8,27.5,23.2,36.3,40.3c8.7,17.1,13.1,36.1,13.1,57s-4.1,40-12.2,57
		c-8.1,17.1-19.3,30.4-33.5,40.1c-14.2,9.7-30.1,14.5-47.6,14.5c-14.1,0-27.2-3.2-39.4-9.7c-12.2-6.4-22.5-15.4-31-27V422
		c0,6.2-1.7,11.1-5.1,14.9c-3.4,3.8-7.9,5.6-13.5,5.6c-5.3,0-9.8-1.9-13.3-5.6c-3.5-3.8-5.3-8.7-5.3-14.9V238.2c0-21,4.4-40,13.3-57
		c8.9-17.1,20.9-30.5,36.1-40.3c15.2-9.8,32.1-14.7,50.9-14.7C630.1,126.2,647.1,131.1,662.6,140.9z M644.3,303.7
		c9.8-6.6,17.6-15.6,23.3-27c5.7-11.4,8.6-24.2,8.6-38.5c0-14.2-2.9-27.1-8.6-38.7c-5.7-11.5-13.5-20.6-23.3-27.2
		c-9.8-6.6-20.8-9.9-33-9.9c-12.2,0-23.1,3.3-33,9.9c-9.8,6.6-17.6,15.7-23.1,27.2c-5.6,11.6-8.4,24.5-8.4,38.7
		c0,14.2,2.8,27.1,8.4,38.5c5.6,11.4,13.3,20.4,23.1,27c9.8,6.6,20.8,9.9,33,9.9C623.5,313.6,634.5,310.3,644.3,303.7z"/>
	<path id="XMLID_49_" class="st1" d="M805.6,335.5c-15.3-9.5-27.2-22.8-35.7-39.7c-8.5-16.9-12.8-36.1-12.8-57.6
		c0-21.8,4.2-41.1,12.8-58c8.5-16.9,20.4-30.2,35.7-39.7c15.3-9.5,32.7-14.3,52.1-14.3c19.2,0,36.4,4.8,51.6,14.3
		c15.2,9.5,27.1,22.8,35.7,39.7c8.6,16.9,12.9,36.3,12.9,58c0,21.5-4.3,40.7-12.8,57.6c-8.5,16.9-20.4,30.2-35.5,39.7
		c-15.2,9.5-32.5,14.3-51.9,14.3C838.3,349.8,821,345.1,805.6,335.5z M891.1,303.9c9.8-6.4,17.5-15.4,23-26.8
		c5.5-11.4,8.2-24.4,8.2-38.9s-2.7-27.5-8.2-39.1c-5.5-11.5-13.1-20.6-23-27c-9.8-6.4-21-9.7-33.4-9.7c-12.4,0-23.5,3.2-33.4,9.7
		c-9.8,6.4-17.6,15.5-23.1,27c-5.6,11.6-8.4,24.6-8.4,39.1s2.8,27.5,8.4,38.9c5.6,11.4,13.3,20.4,23.1,26.8s21,9.7,33.4,9.7
		C870.2,313.6,881.3,310.3,891.1,303.9z"/>
	<path id="XMLID_52_" class="st1" d="M1039.3,341.4c-14.6-5.6-26-13-34.3-22.2c-3.2-3.5-4.7-7.7-4.7-12.5c0-6.4,2.4-11.7,7.3-15.7
		c4.6-3.8,8.9-5.6,12.8-5.6c4.9,0,9.5,2.4,13.9,7.3c4.6,5.6,11.5,10.5,20.8,14.7c9.2,4.2,19.1,6.2,29.5,6.2
		c13.9,0,24.6-2.5,32.3-7.7c7.7-5.1,11.5-12,11.5-20.6c0-8.3-3.8-15.2-11.3-20.8c-7.5-5.5-20.3-10.1-38.3-13.9
		c-46.7-9.9-70-31.2-70-63.7c0-13.2,3.5-24.3,10.6-33.4c7-9.1,16.3-16,27.7-20.6c11.4-4.6,23.6-6.9,36.5-6.9c15.8,0,30,2.8,42.5,8.5
		c12.5,5.6,22.4,13.4,29.7,23.4c3.2,4.3,4.7,8.6,4.7,12.9c0,4.6-2.1,8.7-6.2,12.5c-2.7,2.2-6.1,3.2-10.2,3.2c-6.3,0-12-2.6-17.1-7.7
		c-6.1-6.2-12.5-10.5-19.3-13.1c-6.8-2.6-15.1-3.8-24.8-3.8c-11.2,0-20.4,2.1-27.5,6.2c-7.2,4.2-10.8,10-10.8,17.5
		c0,5.4,1.2,9.9,3.6,13.5c2.4,3.6,7,7,13.9,10.1c6.8,3.1,16.6,6.1,29.5,9.1c26.5,5.9,45.3,14.1,56.3,24.6
		c11.1,10.5,16.6,24,16.6,40.7c0,12.4-3,23.6-9.1,33.7c-6.1,10.1-15,18-26.8,23.8c-11.8,5.8-25.9,8.7-42.5,8.7
		C1069.5,349.8,1053.9,347,1039.3,341.4z"/>
	<path id="XMLID_54_" class="st1" d="M1307.4,313.6c3,3.8,4.6,8.6,4.6,14.5c0,5.9-2,10.7-6,14.5c-4,3.8-9.2,5.6-15.5,5.6h-6.6
		c-11.9,0-22.8-3.4-32.6-10.3c-9.8-6.9-17.6-16.2-23.1-28c-5.6-11.8-8.4-25.1-8.4-39.9v-99.5H1203c-5.1,0-9.2-1.6-12.4-4.8
		c-3.2-3.2-4.7-7.3-4.7-12.1c0-5.4,1.6-9.7,4.7-12.9c3.2-3.2,7.3-4.8,12.4-4.8h16.8v-58c0-5.9,1.7-10.7,5.1-14.5
		c3.4-3.8,7.8-5.6,13.1-5.6c5.3,0,9.7,1.9,13.1,5.6c3.4,3.8,5.1,8.6,5.1,14.5v58h31c5.1,0,9.2,1.6,12.4,4.8
		c3.2,3.2,4.7,7.5,4.7,12.9c0,4.8-1.6,8.9-4.7,12.1c-3.2,3.2-7.3,4.8-12.4,4.8h-31V270c0,10.7,2.7,19.7,8,27
		c5.3,7.3,11.9,10.9,19.7,10.9h12.4C1300.7,307.9,1304.4,309.8,1307.4,313.6z"/>
	<path id="XMLID_56_" d="M1501.9,137.9c13.4,8.1,23.8,19.8,31.4,35.3c7.5,15.5,11.3,34.1,11.3,55.8v99.1c0,5.9-1.8,10.8-5.3,14.7
		c-3.5,3.9-8,5.8-13.3,5.8c-5.3,0-9.8-1.9-13.3-5.8c-3.5-3.9-5.3-8.8-5.3-14.7v-99.1c0-21.8-5.3-38.2-15.9-49.4
		c-10.6-11.1-24.6-16.7-42.1-16.7c-10.2,0-19.5,2.3-27.9,6.9c-8.4,4.6-14.9,10.7-19.7,18.5c-4.7,7.8-7.1,16.5-7.1,26.2v113.6
		c0,5.9-1.7,10.8-5.1,14.7c-3.4,3.9-7.9,5.8-13.5,5.8c-5.3,0-9.8-1.9-13.3-5.8c-3.5-3.9-5.3-8.8-5.3-14.7V54
		c0-6.2,1.8-11.1,5.3-14.9c3.5-3.8,8-5.6,13.3-5.6c5.6,0,10.1,1.9,13.5,5.6c3.4,3.8,5.1,8.7,5.1,14.9v98.7
		c7.8-8.6,17-15.2,27.7-19.9c10.7-4.7,22.1-7.1,34.3-7.1C1473.5,125.8,1488.6,129.8,1501.9,137.9z"/>
	<path id="XMLID_58_" d="M1644.8,335.5c-15.3-9.5-27.2-22.8-35.7-39.7c-8.5-16.9-12.8-36.1-12.8-57.6c0-21.8,4.3-41.1,12.8-58
		c8.5-16.9,20.4-30.2,35.7-39.7c15.3-9.5,32.7-14.3,52.1-14.3c19.2,0,36.4,4.8,51.6,14.3c15.2,9.5,27.1,22.8,35.7,39.7
		c8.6,16.9,12.9,36.3,12.9,58c0,21.5-4.3,40.7-12.8,57.6c-8.5,16.9-20.4,30.2-35.5,39.7c-15.2,9.5-32.5,14.3-51.9,14.3
		C1677.5,349.8,1660.1,345.1,1644.8,335.5z M1730.3,303.9c9.8-6.4,17.5-15.4,23-26.8c5.5-11.4,8.2-24.4,8.2-38.9s-2.7-27.5-8.2-39.1
		c-5.5-11.5-13.1-20.6-23-27c-9.8-6.4-21-9.7-33.4-9.7s-23.5,3.2-33.4,9.7c-9.8,6.4-17.6,15.5-23.1,27c-5.6,11.6-8.4,24.6-8.4,39.1
		s2.8,27.5,8.4,38.9c5.6,11.4,13.3,20.4,23.1,26.8s21,9.7,33.4,9.7S1720.5,310.3,1730.3,303.9z"/>
	<path id="XMLID_61_" d="M2004.1,140.9c15.4,9.8,27.5,23.2,36.3,40.3c8.7,17.1,13.1,36.1,13.1,57s-4.1,40-12.2,57
		c-8.1,17.1-19.3,30.4-33.5,40.1c-14.2,9.7-30.1,14.5-47.6,14.5c-14.1,0-27.2-3.2-39.4-9.7c-12.2-6.4-22.5-15.4-31-27V422
		c0,6.2-1.7,11.1-5.1,14.9c-3.4,3.8-7.9,5.6-13.5,5.6c-5.3,0-9.8-1.9-13.3-5.6c-3.5-3.8-5.3-8.7-5.3-14.9V238.2c0-21,4.4-40,13.3-57
		c8.9-17.1,20.9-30.5,36.1-40.3c15.2-9.8,32.1-14.7,50.9-14.7C1971.6,126.2,1988.7,131.1,2004.1,140.9z M1985.9,303.7
		c9.8-6.6,17.6-15.6,23.3-27c5.7-11.4,8.6-24.2,8.6-38.5c0-14.2-2.9-27.1-8.6-38.7c-5.7-11.5-13.5-20.6-23.3-27.2
		c-9.8-6.6-20.8-9.9-33-9.9c-12.2,0-23.1,3.3-33,9.9c-9.8,6.6-17.6,15.7-23.1,27.2c-5.6,11.6-8.4,24.5-8.4,38.7
		c0,14.2,2.8,27.1,8.4,38.5c5.6,11.4,13.3,20.4,23.1,27c9.8,6.6,20.8,9.9,33,9.9C1965,313.6,1976,310.3,1985.9,303.7z"/>
</g>
<path id="XMLID_44_" class="st2" d="M436.3,271.7c0,101.4-83.3,145.6-186,145.6s-186-44.2-186-145.6s83.3-221.6,186-221.6
	S436.3,170.3,436.3,271.7z"/>
<polyline id="XMLID_5_" class="st0" points="0.3,483.7 0.3,-16.3 500.3,-16.3 "/>
<path id="XMLID_3_" class="st3" d="M362.1,100.8c-49.5,17.8-94.5,40.7-134.2,68.2c-41.6,28.9-77.5,63-106.6,101.3
	c-18.7,24.6-32.9,47-42.6,66.7c11.8,27,33.3,47.4,60.7,57.8c6.8-17.5,20.1-45.8,44-77.2c36.5-48,105.1-111.9,226.5-150.6
	C399.4,140.5,383.2,118.3,362.1,100.8z"/>
<g id="XMLID_1_">
</g>
<g id="XMLID_45_">
</g>
<g id="XMLID_65_">
</g>
<g id="XMLID_66_">
</g>
<g id="XMLID_67_">
</g>
<g id="XMLID_68_">
</g>
</svg>
